<svg xmlns="http://www.w3.org/2000/svg" width="111" height="30" fill="none"><path fill="#000" d="M20.734 22.172c0 .325-.013.605-.039.84a3.56 3.56 0 0 1-.078.586c-.039.156-.091.293-.156.41a2.28 2.28 0 0 1-.313.41c-.143.143-.423.332-.84.566a9.78 9.78 0 0 1-1.503.684c-.586.208-1.263.384-2.032.527-.755.143-1.575.215-2.46.215-1.732 0-3.295-.267-4.688-.8a9.31 9.31 0 0 1-3.555-2.383c-.976-1.068-1.725-2.396-2.246-3.985-.52-1.588-.781-3.437-.781-5.547 0-2.148.286-4.056.86-5.722.572-1.667 1.373-3.067 2.402-4.2a10.073 10.073 0 0 1 3.691-2.578C10.441.61 12.03.316 13.762.316c.703 0 1.38.059 2.031.176.651.117 1.25.274 1.797.469a8.43 8.43 0 0 1 1.504.644c.442.248.748.463.918.645.182.17.306.313.37.43.066.117.118.267.157.449.04.182.065.397.078.644.026.248.04.554.04.918 0 .391-.014.723-.04.997a2.571 2.571 0 0 1-.137.664.912.912 0 0 1-.234.37.467.467 0 0 1-.312.118c-.196 0-.443-.11-.743-.332-.3-.235-.69-.488-1.171-.762a8.29 8.29 0 0 0-1.7-.762c-.65-.234-1.432-.351-2.343-.351-1.003 0-1.902.208-2.696.625-.781.403-1.452.99-2.011 1.758-.547.755-.964 1.673-1.25 2.754-.287 1.08-.43 2.298-.43 3.652 0 1.484.15 2.773.45 3.867.312 1.08.748 1.973 1.308 2.676a5.484 5.484 0 0 0 2.05 1.582c.808.338 1.713.508 2.715.508.912 0 1.7-.104 2.364-.313.664-.221 1.23-.462 1.699-.723.482-.26.872-.494 1.172-.703.312-.208.553-.312.722-.312.13 0 .235.026.313.078.078.052.143.156.195.313.052.156.091.377.117.664.026.273.04.644.04 1.113Zm32.48 3.125a.52.52 0 0 1-.136.351c-.078.105-.215.19-.41.254a4.101 4.101 0 0 1-.781.157c-.326.039-.736.058-1.23.058-.509 0-.932-.02-1.27-.058a4.1 4.1 0 0 1-.782-.157.963.963 0 0 1-.41-.254.571.571 0 0 1-.117-.351V15.082h-9.453v10.215c0 .13-.04.247-.117.351-.078.105-.215.19-.41.254a4.103 4.103 0 0 1-.782.157c-.325.039-.742.058-1.25.058-.494 0-.911-.02-1.25-.058a4.1 4.1 0 0 1-.78-.157c-.196-.065-.34-.15-.43-.254a.57.57 0 0 1-.118-.351V1.43a.57.57 0 0 1 .117-.352c.092-.104.235-.189.43-.254.196-.065.456-.117.781-.156.339-.04.756-.059 1.25-.059.508 0 .925.02 1.25.059a4.1 4.1 0 0 1 .782.156c.195.065.332.15.41.254a.572.572 0 0 1 .117.352v9.277h9.453V1.43c0-.13.04-.248.117-.352a.964.964 0 0 1 .41-.254c.196-.065.456-.117.782-.156.338-.04.761-.059 1.27-.059.494 0 .904.02 1.23.059.325.039.586.091.781.156.195.065.332.15.41.254a.52.52 0 0 1 .137.352v23.867Zm19.727 0a.52.52 0 0 1-.136.351c-.078.105-.215.19-.41.254a4.1 4.1 0 0 1-.782.157c-.325.039-.742.058-1.25.058-.495 0-.911-.02-1.25-.058a4.101 4.101 0 0 1-.781-.157c-.195-.065-.338-.15-.43-.254a.571.571 0 0 1-.117-.351V1.43c0-.13.04-.248.117-.352.091-.104.235-.189.43-.254.208-.065.475-.117.8-.156.326-.04.736-.059 1.231-.059.508 0 .925.02 1.25.059.326.039.586.091.781.156.196.065.333.15.41.254a.52.52 0 0 1 .137.352v23.867Zm35.567-12.305c0 2.318-.306 4.304-.918 5.957-.599 1.64-1.465 2.982-2.598 4.024-1.133 1.041-2.513 1.81-4.14 2.304-1.615.482-3.542.723-5.782.723h-6.035c-.43 0-.794-.124-1.094-.371-.286-.26-.43-.677-.43-1.25V2.348c0-.573.144-.983.43-1.23.3-.261.665-.391 1.094-.391h6.484c2.253 0 4.16.266 5.723.8 1.576.521 2.897 1.302 3.965 2.344 1.081 1.029 1.901 2.305 2.461 3.828.56 1.524.84 3.288.84 5.293Zm-5.313.176c0-1.198-.143-2.311-.429-3.34-.274-1.029-.723-1.92-1.348-2.676-.612-.755-1.406-1.34-2.383-1.757-.963-.43-2.233-.645-3.808-.645h-2.598v17.188h2.676c1.406 0 2.59-.183 3.554-.547.964-.365 1.765-.912 2.403-1.641.651-.742 1.133-1.66 1.445-2.754.326-1.094.488-2.37.488-3.828Z"/></svg>